<svg xmlns="http://www.w3.org/2000/svg" width="512" height="512" viewBox="0 0 512 512" version="1.1">
	<path d="M 234.500 7.143 C 158.536 13.740, 89.847 54.633, 47.470 118.487 C 26.308 150.375, 13.583 184.682, 7.780 225.500 C 5.842 239.131, 6.171 276.802, 8.352 291 C 12.504 318.031, 19.932 341.973, 31.465 365.500 C 39.862 382.629, 44.844 390.755, 56.908 407 C 66.683 420.164, 88.510 442.526, 101 452.175 C 137.283 480.203, 175.753 496.718, 221 503.689 C 237.140 506.176, 274.893 506.173, 291 503.683 C 346.962 495.034, 393.407 471.695, 432.551 432.551 C 453.495 411.606, 467.569 391.941, 480.540 365.500 C 492.154 341.823, 499.405 318.269, 503.689 290.305 C 505.757 276.799, 506.063 238.679, 504.208 225.500 C 494.186 154.308, 459.678 95.836, 403.022 54.044 C 355.702 19.139, 294.025 1.974, 234.500 7.143 M 250 96.121 C 246.806 97.391, 242.225 101.728, 240.411 105.200 C 239.286 107.353, 239 114.103, 239 138.490 C 239 166.989, 239.135 169.345, 240.977 172.956 C 244.125 179.125, 248.300 181.500, 256 181.500 C 263.700 181.500, 267.875 179.125, 271.023 172.956 C 272.863 169.349, 273 166.991, 273 139.008 C 273 106.320, 272.793 104.882, 267.373 99.814 C 262.469 95.228, 255.807 93.812, 250 96.121 M 249.924 106.579 L 247.500 109.158 247.206 137.544 C 246.954 161.939, 247.136 166.363, 248.504 169.008 C 251.592 174.980, 259.586 175.334, 263.093 169.655 C 264.923 166.691, 265.025 164.763, 264.771 137.829 L 264.500 109.158 262.076 106.579 C 258.736 103.026, 253.264 103.026, 249.924 106.579 M 216 122.397 C 171.344 136.029, 137.436 169.592, 123.098 214.352 C 119.460 225.711, 119.262 228.534, 122 230 C 125.660 231.959, 127.383 229.769, 130.272 219.489 C 139.594 186.326, 165.415 154.999, 196.348 139.324 C 203.272 135.815, 217.431 130.494, 223.771 129.018 C 229.675 127.643, 231.762 125.292, 230 122 C 228.614 119.410, 225.493 119.499, 216 122.397 M 282.065 121.878 C 280.236 125.296, 282.246 127.625, 288.229 129.018 C 294.569 130.494, 308.728 135.815, 315.652 139.324 C 346.804 155.110, 373.381 187.655, 382.113 220.711 C 384.499 229.741, 386.369 231.943, 390 230 C 392.738 228.535, 392.541 225.725, 388.896 214.262 C 377.257 177.653, 351.262 147.316, 317.500 130.942 C 306.365 125.541, 294.340 121.282, 287.629 120.363 C 283.797 119.837, 283.048 120.041, 282.065 121.878 M 217.854 146.474 C 208.520 149.739, 194.670 157.110, 186.968 162.912 C 178.772 169.086, 165.628 182.711, 160.317 190.537 C 152.300 202.353, 143.345 223.253, 144.436 227.602 C 145.100 230.248, 147.521 231.327, 149.916 230.045 C 150.890 229.524, 152.683 226.063, 153.900 222.354 C 164.300 190.675, 190.850 164.127, 222.264 153.999 C 229.625 151.625, 231.805 149.372, 230 146 C 228.643 143.464, 226.184 143.560, 217.854 146.474 M 282 146 C 280.286 149.203, 282.375 151.675, 288.247 153.392 C 307.070 158.896, 328.366 173.856, 341.092 190.513 C 348.915 200.751, 357.216 216.955, 359.386 226.221 C 360.555 231.211, 366.410 232.199, 367.564 227.602 C 368.222 224.978, 364.147 213.291, 358.974 202.972 C 351.473 188.006, 335.481 169.829, 321.423 160.290 C 313.678 155.035, 302.217 149.301, 293.575 146.358 C 285.128 143.482, 283.377 143.428, 282 146 M 248.885 194.320 C 239.178 197.949, 233.498 205.779, 233.521 215.500 C 233.548 226.936, 240.447 235.614, 251.472 238.081 C 262.733 240.601, 274.317 233.597, 277.608 222.277 C 279.621 215.351, 278.840 209.717, 275.036 203.718 C 269.721 195.336, 257.710 191.020, 248.885 194.320 M 248.299 203.960 C 239.622 209.250, 239.984 223.838, 248.906 228.451 C 258.654 233.493, 269.987 226.910, 269.996 216.200 C 270.004 207.665, 264.424 202.007, 256 202.007 C 253.297 202.007, 250.222 202.787, 248.299 203.960 M 105.481 240.394 C 101.025 242.335, 96.307 248.221, 95.533 252.807 C 94.195 260.726, 98.949 269.162, 106.315 271.939 C 108.070 272.600, 120.328 273, 138.853 273 C 167.690 273, 168.709 272.933, 173.034 270.750 C 184.684 264.870, 184.942 247.779, 173.480 241.287 C 169.588 239.083, 168.823 239.033, 139 239.056 C 116.031 239.073, 107.755 239.403, 105.481 240.394 M 338.520 241.287 C 327.058 247.779, 327.316 264.870, 338.966 270.750 C 343.292 272.933, 344.307 273, 373.244 273 C 406.279 273, 407.302 272.837, 412.664 266.730 C 420.159 258.193, 416.479 244.131, 405.685 240.061 C 403.923 239.397, 391.577 239.006, 372.685 239.016 C 343.225 239.033, 342.404 239.087, 338.520 241.287 M 108.500 248.184 C 101.699 252.165, 102.841 262.667, 110.278 264.534 C 111.501 264.841, 125.201 264.958, 140.724 264.796 C 168.488 264.505, 168.984 264.463, 171.201 262.245 C 174.298 259.146, 174.298 252.854, 171.201 249.755 C 168.977 247.530, 168.560 247.497, 139.724 247.257 C 118.813 247.083, 109.931 247.347, 108.500 248.184 M 343.308 248.010 C 337.785 250.235, 336.552 258.472, 341.123 262.613 C 343.044 264.352, 345.408 264.523, 371.353 264.796 C 386.833 264.958, 400.499 264.841, 401.722 264.534 C 405.337 263.626, 408.003 260.010, 407.968 256.061 C 407.933 252.138, 406.632 249.930, 403.316 248.163 C 400.690 246.765, 346.742 246.627, 343.308 248.010 M 245 256.360 C 232.753 259.694, 222.331 268.347, 216.895 279.695 C 214.254 285.208, 213.563 288.019, 213.256 294.500 C 212.939 301.198, 213.203 303.016, 214.876 305.671 C 217.569 309.944, 224.041 313.560, 233.586 316.124 C 244.980 319.186, 267.176 319.196, 278.414 316.146 C 287.977 313.550, 294.438 309.933, 297.124 305.671 C 300.279 300.664, 299.373 288.603, 295.184 279.860 C 286.239 261.189, 264.558 251.036, 245 256.360 M 247.734 264.025 C 233.142 267.706, 221.501 281.639, 221.500 295.424 C 221.500 301.104, 221.665 301.503, 224.937 303.722 C 231.686 308.299, 238.144 309.500, 256 309.500 C 273.856 309.500, 280.314 308.299, 287.063 303.722 C 290.335 301.503, 290.500 301.104, 290.500 295.424 C 290.499 283.729, 282.301 271.923, 270.290 266.321 C 264.413 263.579, 253.789 262.498, 247.734 264.025 M 121.750 282.080 C 119.286 283.515, 119.551 286.567, 123.110 297.738 C 134.095 332.221, 157.684 360.761, 190 378.668 C 201.975 385.304, 224.083 392.743, 228.069 391.478 C 230.284 390.775, 230.835 385.181, 228.750 384.572 C 201.884 376.721, 189.780 370.772, 172.674 357.011 C 153.330 341.449, 137.045 316.782, 130.417 293 C 128.114 284.739, 126.086 280.920, 124.059 281.030 C 123.751 281.047, 122.713 281.519, 121.750 282.080 M 145.571 282.571 C 143.474 284.669, 143.562 285.653, 146.610 294.190 C 158.438 327.320, 184.613 353.453, 217.962 365.430 C 227.199 368.748, 230.260 368.327, 229.811 363.802 C 229.523 360.904, 229.003 360.505, 222.772 358.409 C 191.060 347.742, 166.933 324.372, 155.010 292.775 C 150.609 281.112, 148.890 279.253, 145.571 282.571 M 361.847 282.250 C 361.003 282.938, 359.294 286.425, 358.050 290 C 346.665 322.712, 321.014 348.142, 289 358.454 C 282.858 360.432, 280.965 362.151, 281.725 365.057 C 282.545 368.193, 286.036 368.303, 294.038 365.445 C 327.238 353.589, 353.572 327.291, 365.390 294.190 C 368.438 285.653, 368.526 284.669, 366.429 282.571 C 364.530 280.673, 363.843 280.625, 361.847 282.250 M 385.807 282.250 C 384.940 282.938, 383.029 287.775, 381.559 293 C 369.621 335.432, 334.799 369.782, 291 382.330 C 282.899 384.651, 282.486 384.908, 282.193 387.797 C 281.759 392.083, 284.338 392.576, 293.739 390.005 C 325.237 381.390, 353.733 360.536, 372.174 332.606 C 379.482 321.536, 384.226 311.617, 388.604 298.251 C 392.512 286.322, 392.768 283.481, 390.066 282.035 C 387.653 280.744, 387.708 280.741, 385.807 282.250 M 247.500 332.271 C 244.864 333.745, 242.733 336.029, 241.250 338.966 C 239.067 343.292, 239 344.307, 239 373.244 C 239 405.999, 239.225 407.487, 244.909 412.270 C 251.838 418.101, 260.162 418.101, 267.091 412.270 C 272.775 407.487, 273 405.999, 273 373.244 C 273 344.307, 272.933 343.292, 270.750 338.966 C 267.942 333.402, 262.378 330.033, 256 330.033 C 253.199 330.033, 249.990 330.878, 247.500 332.271 M 250.306 340.412 L 247.500 342.824 247.205 371.597 C 246.878 403.579, 247.143 405.326, 252.672 407.636 C 255.514 408.824, 256.486 408.824, 259.328 407.636 C 264.857 405.326, 265.122 403.579, 264.795 371.597 L 264.500 342.824 261.694 340.412 C 260.130 339.067, 257.611 338, 256 338 C 254.389 338, 251.870 339.067, 250.306 340.412" stroke="none" fill="black" fill-rule="evenodd"/>
</svg>